<svg width="42" height="42" viewBox="0 0 42 42" fill="none" xmlns="http://www.w3.org/2000/svg">
<path d="M21 38.5C30.66 38.5 38.5 30.66 38.5 21C38.5 11.34 30.66 3.5 21 3.5C11.34 3.5 3.5 11.34 3.5 21C3.5 30.66 11.34 38.5 21 38.5ZM14.875 19.6875L23.9575 19.6875L20.9475 16.6775C20.44 16.17 20.44 15.33 20.9475 14.8225C21.21 14.56 21.5425 14.4375 21.875 14.4375C22.2075 14.4375 22.54 14.56 22.8025 14.8225L28.0525 20.0725C28.56 20.58 28.56 21.42 28.0525 21.9275L22.8025 27.1775C22.295 27.685 21.455 27.685 20.9475 27.1775C20.44 26.67 20.44 25.83 20.9475 25.3225L23.9575 22.3125L14.875 22.3125C14.1575 22.3125 13.5625 21.7175 13.5625 21C13.5625 20.2825 14.1575 19.6875 14.875 19.6875Z" fill="#F5FDFF" fill-opacity="0.98"/>
</svg>
