<svg width="42" height="42" viewBox="0 0 42 42" fill="none" xmlns="http://www.w3.org/2000/svg">
<path d="M21 3.5C11.34 3.5 3.5 11.34 3.5 21C3.5 30.66 11.34 38.5 21 38.5C30.66 38.5 38.5 30.66 38.5 21C38.5 11.34 30.66 3.5 21 3.5ZM27.125 22.3125H18.0425L21.0525 25.3225C21.56 25.83 21.56 26.67 21.0525 27.1775C20.79 27.44 20.4575 27.5625 20.125 27.5625C19.7925 27.5625 19.46 27.44 19.1975 27.1775L13.9475 21.9275C13.44 21.42 13.44 20.58 13.9475 20.0725L19.1975 14.8225C19.705 14.315 20.545 14.315 21.0525 14.8225C21.56 15.33 21.56 16.17 21.0525 16.6775L18.0425 19.6875H27.125C27.8425 19.6875 28.4375 20.2825 28.4375 21C28.4375 21.7175 27.8425 22.3125 27.125 22.3125Z" fill="#F5FDFF" fill-opacity="0.98"/>
</svg>
