<svg width="26" height="26" viewBox="0 0 34 34" fill="none" xmlns="http://www.w3.org/2000/svg">
<g clip-path="url(#clip0_45_14)">
<g filter="url(#filter0_d_45_14)">
<path d="M6.13592 9.5692C6.20274 9.56539 6.26962 9.56318 6.33655 9.56256C6.40348 9.56194 6.47039 9.56291 6.53728 9.56548C6.60416 9.56805 6.67095 9.57219 6.73763 9.5779C6.8043 9.58365 6.87082 9.59098 6.93718 9.59988C7.0035 9.60878 7.0696 9.61925 7.13547 9.63129C7.2013 9.64333 7.26682 9.65692 7.33203 9.67206C7.3972 9.6872 7.46199 9.70389 7.5264 9.72213C7.59082 9.74037 7.65474 9.76012 7.71818 9.78137C7.78167 9.80266 7.8446 9.82544 7.90698 9.8497C7.96936 9.87396 8.03114 9.89968 8.09232 9.92686C8.15346 9.95405 8.21393 9.98269 8.27374 10.0128C8.33355 10.0429 8.39261 10.0743 8.45091 10.1072C8.50917 10.1401 8.56666 10.1743 8.62337 10.21C8.68004 10.2455 8.73582 10.2825 8.79071 10.3207C8.84565 10.359 8.89964 10.3985 8.95268 10.4394C9.00571 10.4802 9.05775 10.5223 9.1088 10.5656C9.16299 10.6109 9.216 10.6576 9.26784 10.7055C9.31968 10.7535 9.37028 10.8028 9.41965 10.8534C9.46901 10.9039 9.51709 10.9556 9.56388 11.0086C9.61063 11.0615 9.65605 11.1156 9.70015 11.1708C9.7442 11.226 9.78685 11.2823 9.82811 11.3397C9.86937 11.397 9.90915 11.4553 9.94744 11.5147C9.98578 11.574 10.0226 11.6343 10.0579 11.6955C10.0932 11.7567 10.127 11.8187 10.1591 11.8816C10.1913 11.9445 10.2219 12.0082 10.2509 12.0726C10.28 12.137 10.3073 12.2021 10.3331 12.2679C10.3588 12.3337 10.3829 12.4001 10.4053 12.467C10.4277 12.5341 10.4484 12.6016 10.4675 12.6696C10.4865 12.7376 10.5038 12.8061 10.5195 12.875C10.535 12.9439 10.5489 13.0132 10.561 13.0828C10.5732 13.1523 10.5836 13.2222 10.5922 13.2923C10.6009 13.3624 10.6077 13.4327 10.6128 13.5032C10.6179 13.5724 10.6213 13.6416 10.6229 13.711C10.6246 13.7803 10.6246 13.8496 10.6228 13.919C10.6211 13.9883 10.6176 14.0576 10.6124 14.1267C10.6073 14.1959 10.6004 14.2649 10.5918 14.3338C10.5833 14.4026 10.573 14.4712 10.5611 14.5395C10.5491 14.6078 10.5355 14.6758 10.5203 14.7434C10.5049 14.8111 10.488 14.8784 10.4694 14.9452C10.4508 15.012 10.4306 15.0783 10.4087 15.1441C10.3868 15.21 10.3633 15.2752 10.3382 15.3399C10.3131 15.4046 10.2865 15.4686 10.2582 15.5319C10.23 15.5953 10.2003 15.6579 10.1689 15.7198C10.1376 15.7817 10.1047 15.8428 10.0704 15.903C10.0361 15.9633 10.0003 16.0227 9.96305 16.0812C9.92577 16.1397 9.8871 16.1973 9.84704 16.2539C9.80693 16.3105 9.76545 16.3661 9.72259 16.4206C9.67978 16.4752 9.63564 16.5287 9.59018 16.581C9.54422 16.6347 9.49694 16.6873 9.44833 16.7387C9.39972 16.79 9.34988 16.8402 9.29879 16.889C9.2477 16.9379 9.19544 16.9855 9.142 17.0317C9.08852 17.078 9.03394 17.1229 8.97824 17.1665C8.92251 17.21 8.86573 17.2521 8.80791 17.2928C8.75014 17.3335 8.69137 17.3728 8.6316 17.4106C8.57184 17.4483 8.51116 17.4846 8.44958 17.5194C8.388 17.5541 8.3256 17.5873 8.26238 17.619C8.19912 17.6506 8.13513 17.6806 8.0704 17.7091C8.00568 17.7375 7.94029 17.7643 7.87424 17.7895C7.80819 17.8147 7.74154 17.8382 7.67429 17.8601C7.60704 17.882 7.53929 17.9021 7.47102 17.9206C7.4028 17.9391 7.33414 17.9559 7.26503 17.9709C7.19597 17.986 7.12655 17.9993 7.05678 18.0109C6.98705 18.0224 6.91706 18.0323 6.8468 18.0404C6.77659 18.0485 6.7062 18.0548 6.63562 18.0594C5.51731 18.0862 4.5024 17.7981 3.63952 17.062C3.58587 17.017 3.53336 16.9708 3.482 16.9232C3.43065 16.8756 3.3805 16.8268 3.33157 16.7768C3.28263 16.7267 3.23497 16.6755 3.18857 16.6231C3.14218 16.5707 3.09711 16.5171 3.05338 16.4624C3.00964 16.4078 2.96728 16.3521 2.92631 16.2954C2.88534 16.2386 2.8458 16.1808 2.80769 16.1221C2.76958 16.0634 2.73295 16.0038 2.6978 15.9432C2.66265 15.8827 2.62903 15.8213 2.59692 15.7591C2.56482 15.6969 2.53427 15.6339 2.50529 15.5702C2.47631 15.5065 2.44892 15.4421 2.42314 15.377C2.39735 15.3119 2.37319 15.2463 2.35067 15.18C2.32814 15.1137 2.30727 15.0469 2.28805 14.9796C2.26884 14.9123 2.25131 14.8445 2.23545 14.7763C2.2196 14.7081 2.20545 14.6396 2.193 14.5707C2.18055 14.5018 2.16981 14.4327 2.16079 14.3633C2.15177 14.2938 2.14447 14.2243 2.1389 14.1545C2.13322 14.0845 2.12928 14.0145 2.12708 13.9443C2.12488 13.8742 2.12443 13.804 2.12571 13.7339C2.12699 13.6637 2.13002 13.5936 2.13477 13.5236C2.13954 13.4535 2.14604 13.3837 2.15427 13.314C2.1625 13.2443 2.17246 13.1748 2.18413 13.1056C2.19581 13.0364 2.2092 12.9675 2.2243 12.899C2.2394 12.8304 2.25619 12.7623 2.27467 12.6946C2.29316 12.6269 2.3133 12.5597 2.33512 12.493C2.35694 12.4263 2.3804 12.3601 2.4055 12.2946C2.4306 12.2291 2.45731 12.1642 2.48563 12.0999C2.51395 12.0357 2.54385 11.9723 2.57533 11.9096C2.6068 11.8468 2.63981 11.7849 2.67435 11.7238C2.7089 11.6627 2.74494 11.6025 2.78247 11.5432C2.82001 11.4839 2.859 11.4256 2.89943 11.3682C2.93986 11.3108 2.98169 11.2545 3.02492 11.1992C3.06815 11.1439 3.11272 11.0897 3.15864 11.0366C3.93134 10.1451 4.96608 9.65586 6.13592 9.5692Z" fill="#00191F"/>
</g>
<g filter="url(#filter1_d_45_14)">
<path d="M27.3859 9.5692C27.4527 9.56539 27.5196 9.56318 27.5866 9.56256C27.6535 9.56194 27.7204 9.56291 27.7873 9.56548C27.8542 9.56805 27.921 9.57219 27.9877 9.5779C28.0544 9.58365 28.1209 9.59098 28.1872 9.59988C28.2536 9.60878 28.3197 9.61925 28.3855 9.63129C28.4513 9.64333 28.5168 9.65692 28.5821 9.67206C28.6472 9.6872 28.712 9.70389 28.7764 9.72213C28.8408 9.74037 28.9048 9.76012 28.9682 9.78137C29.0317 9.80266 29.0946 9.82544 29.157 9.8497C29.2194 9.87396 29.2812 9.89968 29.3423 9.92686C29.4035 9.95405 29.464 9.98267 29.5238 10.0127C29.5836 10.0428 29.6426 10.0743 29.7009 10.1072C29.7592 10.14 29.8167 10.1743 29.8734 10.2099C29.9301 10.2455 29.9858 10.2825 30.0407 10.3207C30.0957 10.359 30.1497 10.3985 30.2027 10.4394C30.2557 10.4802 30.3078 10.5223 30.3588 10.5656C30.413 10.6109 30.466 10.6576 30.5179 10.7055C30.5697 10.7535 30.6203 10.8028 30.6697 10.8534C30.719 10.9039 30.7671 10.9556 30.8139 11.0086C30.8607 11.0615 30.9061 11.1156 30.9502 11.1708C30.9942 11.226 31.0369 11.2823 31.0781 11.3397C31.1194 11.397 31.1592 11.4553 31.1975 11.5147C31.2358 11.574 31.2726 11.6343 31.308 11.6955C31.3432 11.7567 31.377 11.8187 31.4092 11.8816C31.4414 11.9445 31.472 12.0082 31.501 12.0726C31.53 12.137 31.5574 12.2021 31.5831 12.2679C31.6089 12.3337 31.6329 12.4001 31.6553 12.467C31.6778 12.534 31.6985 12.6015 31.7176 12.6696C31.7366 12.7376 31.7539 12.8061 31.7695 12.875C31.7851 12.9439 31.7989 13.0132 31.8111 13.0828C31.8232 13.1523 31.8336 13.2222 31.8423 13.2923C31.8509 13.3624 31.8578 13.4327 31.8629 13.5032C31.8679 13.5724 31.8713 13.6416 31.8729 13.711C31.8746 13.7803 31.8746 13.8496 31.8728 13.919C31.8711 13.9883 31.8676 14.0576 31.8625 14.1267C31.8573 14.1959 31.8504 14.2649 31.8419 14.3338C31.8333 14.4026 31.823 14.4712 31.8111 14.5395C31.7992 14.6078 31.7856 14.6758 31.7703 14.7435C31.755 14.8112 31.738 14.8784 31.7194 14.9452C31.7008 15.012 31.6806 15.0783 31.6587 15.1441C31.6369 15.21 31.6134 15.2752 31.5883 15.3399C31.5632 15.4046 31.5365 15.4686 31.5082 15.5319C31.48 15.5953 31.4503 15.6579 31.4189 15.7198C31.3876 15.7817 31.3548 15.8428 31.3204 15.903C31.2861 15.9633 31.2503 16.0227 31.2131 16.0812C31.1758 16.1397 31.1371 16.1973 31.0971 16.2539C31.0569 16.3105 31.0155 16.3661 30.9726 16.4206C30.9298 16.4752 30.8857 16.5287 30.8402 16.581C30.7942 16.6347 30.747 16.6873 30.6984 16.7387C30.6497 16.79 30.5999 16.8402 30.5488 16.889C30.4977 16.9379 30.4454 16.9855 30.392 17.0317C30.3385 17.078 30.284 17.1229 30.2283 17.1664C30.1725 17.21 30.1158 17.2521 30.0579 17.2928C30.0002 17.3335 29.9414 17.3728 29.8816 17.4106C29.8219 17.4483 29.7612 17.4846 29.6996 17.5194C29.638 17.5541 29.5756 17.5873 29.5124 17.619C29.4491 17.6506 29.3852 17.6806 29.3204 17.7091C29.2557 17.7375 29.1903 17.7643 29.1243 17.7895C29.0582 17.8147 28.9916 17.8382 28.9243 17.8601C28.8571 17.882 28.7893 17.9021 28.721 17.9206C28.6528 17.9391 28.5842 17.9559 28.5151 17.9709C28.446 17.986 28.3766 17.9993 28.3068 18.0109C28.2371 18.0224 28.1671 18.0323 28.0968 18.0404C28.0266 18.0485 27.9562 18.0548 27.8857 18.0594C26.7673 18.0861 25.7524 17.7982 24.8895 17.062C24.8359 17.017 24.7834 16.9708 24.732 16.9232C24.6807 16.8756 24.6305 16.8268 24.5816 16.7768C24.5326 16.7267 24.485 16.6755 24.4386 16.6231C24.3922 16.5707 24.3471 16.5171 24.3034 16.4624C24.2597 16.4078 24.2173 16.3521 24.1763 16.2953C24.1354 16.2385 24.0958 16.1808 24.0577 16.1221C24.0196 16.0634 23.983 16.0038 23.9478 15.9432C23.9127 15.8827 23.8791 15.8213 23.847 15.7591C23.8149 15.6969 23.7843 15.6339 23.7553 15.5702C23.7263 15.5065 23.6989 15.4421 23.6732 15.377C23.6474 15.3119 23.6233 15.2463 23.6007 15.18C23.5782 15.1137 23.5573 15.0469 23.5381 14.9796C23.5189 14.9123 23.5014 14.8445 23.4855 14.7763C23.4697 14.7081 23.4555 14.6396 23.443 14.5707C23.4306 14.5018 23.4198 14.4327 23.4108 14.3633C23.4018 14.2938 23.3945 14.2243 23.389 14.1545C23.3833 14.0845 23.3793 14.0145 23.3771 13.9443C23.3749 13.8742 23.3745 13.804 23.3757 13.7339C23.377 13.6637 23.3801 13.5936 23.3848 13.5236C23.3896 13.4535 23.3961 13.3837 23.4043 13.314C23.4125 13.2443 23.4225 13.1748 23.4342 13.1056C23.4459 13.0364 23.4593 12.9675 23.4744 12.899C23.4894 12.8304 23.5062 12.7623 23.5247 12.6946C23.5432 12.6269 23.5634 12.5597 23.5852 12.493C23.607 12.4263 23.6305 12.3601 23.6556 12.2946C23.6807 12.2291 23.7074 12.1642 23.7357 12.0999C23.764 12.0357 23.7939 11.9723 23.8254 11.9096C23.8569 11.8468 23.8899 11.7849 23.9244 11.7238C23.959 11.6627 23.995 11.6025 24.0325 11.5432C24.07 11.4839 24.109 11.4256 24.1495 11.3682C24.1899 11.3108 24.2317 11.2545 24.2749 11.1992C24.3182 11.1439 24.3628 11.0897 24.4087 11.0366C25.1814 10.1451 26.2161 9.65579 27.3859 9.5692Z" fill="#00191F"/>
</g>
<g filter="url(#filter2_d_45_14)">
<path d="M29.765 18.7159C29.7983 18.713 29.8318 18.7113 29.8653 18.7105C30.3911 18.7021 30.9729 19.2255 31.3312 19.575C32.3729 20.5908 32.9188 21.9375 32.9373 23.385C32.9498 24.3582 32.9394 25.333 32.9394 26.3064C32.9393 26.7161 32.9799 27.4826 32.9075 27.8613C32.8708 28.053 32.7611 28.2289 32.6249 28.3664C32.4985 28.494 32.3256 28.6122 32.1491 28.6548C31.8093 28.7368 31.1142 28.6924 30.7397 28.6923L28.1646 28.6929L26.5607 28.693C26.5824 27.6306 26.5636 26.5637 26.5636 25.5009C26.5634 23.4662 26.6709 21.9483 25.9283 19.9903C25.7654 19.5605 25.5731 19.1088 25.3316 18.7177C25.6373 18.7183 25.8972 18.8324 26.1853 18.9194C26.388 18.9794 26.5938 19.0256 26.8027 19.0581C26.8939 19.0722 26.9853 19.0838 27.077 19.0931C27.1688 19.1025 27.2607 19.1094 27.3528 19.1139C27.4449 19.1184 27.537 19.1206 27.6293 19.1203C27.7215 19.1201 27.8136 19.1175 27.9057 19.1124C27.9977 19.1074 28.0896 19.1 28.1814 19.0903C28.273 19.0805 28.3644 19.0683 28.4555 19.0538C28.5466 19.0393 28.6372 19.0224 28.7274 19.0032C28.8175 18.984 28.9072 18.9625 28.9962 18.9386C29.2451 18.8727 29.4856 18.7542 29.7408 18.7191L29.765 18.7159Z" fill="#00191F"/>
</g>
<g filter="url(#filter3_d_45_14)">
<path d="M4.01517 18.7164C4.40908 18.6914 4.75125 18.8833 5.12621 18.9727C5.23365 18.9986 5.3418 19.0211 5.45065 19.0403C5.5595 19.0594 5.66884 19.0752 5.77867 19.0875C5.88851 19.0998 5.99862 19.1086 6.109 19.114C6.21939 19.1195 6.32984 19.1215 6.44035 19.1199C6.55086 19.1185 6.66123 19.1135 6.77145 19.1051C6.88164 19.0968 6.99147 19.085 7.10095 19.0697C7.21039 19.0545 7.31925 19.0358 7.42754 19.0138C7.53587 18.9917 7.64338 18.9663 7.75008 18.9375C8.06278 18.8539 8.3314 18.7202 8.6625 18.7198C8.41958 19.1137 8.22674 19.5719 8.06331 20.0044C7.34931 21.8933 7.43817 23.2635 7.43797 25.2202L7.43823 28.6901C6.99285 28.6981 6.54656 28.6927 6.10108 28.6929L3.40746 28.6938C2.98739 28.6943 2.42002 28.729 2.0166 28.678C1.84655 28.6565 1.67754 28.6129 1.5384 28.5094C1.2992 28.3315 1.12304 28.1025 1.08021 27.8002C1.04302 27.5378 1.06178 27.2584 1.06216 26.9932L1.06346 25.6624L1.06261 24.0748C1.06237 23.6714 1.05316 23.2664 1.08942 22.8641C1.10078 22.7425 1.11634 22.6214 1.13611 22.5008C1.15589 22.3803 1.17982 22.2605 1.20792 22.1416C1.23601 22.0228 1.2682 21.905 1.30447 21.7883C1.34075 21.6717 1.38103 21.5564 1.42532 21.4426C1.4696 21.3287 1.51779 21.2166 1.56987 21.1061C1.62195 20.9956 1.67781 20.887 1.73743 20.7804C1.79706 20.6738 1.86031 20.5694 1.9272 20.4671C1.99408 20.3649 2.06443 20.2651 2.13824 20.1678C2.53392 19.6458 3.34633 18.8082 4.01517 18.7164Z" fill="#00191F"/>
</g>
<g filter="url(#filter4_d_45_14)">
<path d="M16.7214 5.31926C18.1125 5.27121 19.4425 5.7021 20.4949 6.62803C20.528 6.65696 20.5608 6.68628 20.5932 6.71599C20.6255 6.74574 20.6575 6.77586 20.6892 6.80636C20.7208 6.83691 20.7521 6.86783 20.783 6.89913C20.8138 6.93043 20.8443 6.96211 20.8743 6.99416C20.9044 7.02621 20.9341 7.05864 20.9634 7.09145C20.9926 7.12425 21.0215 7.15741 21.05 7.19092C21.0784 7.22444 21.1065 7.2583 21.1341 7.29252C21.1617 7.32675 21.1889 7.3613 21.2157 7.39618C21.2424 7.43107 21.2687 7.46627 21.2945 7.50177C21.3204 7.53732 21.3459 7.57318 21.3708 7.60935C21.3959 7.64552 21.4204 7.682 21.4445 7.71879C21.4686 7.75558 21.4922 7.79265 21.5153 7.83002C21.5385 7.86738 21.5612 7.90503 21.5834 7.94297C21.6056 7.98087 21.6274 8.01905 21.6487 8.05752C21.67 8.096 21.6908 8.13473 21.711 8.17374C21.7314 8.21274 21.7512 8.25196 21.7705 8.29141C21.7899 8.3309 21.8088 8.37063 21.8271 8.41061C21.8455 8.45054 21.8633 8.49069 21.8806 8.53107C21.898 8.57149 21.9149 8.61208 21.9312 8.65286C21.9476 8.69367 21.9634 8.73469 21.9787 8.77591C21.9941 8.81712 22.0089 8.85852 22.0232 8.90009C22.0375 8.94166 22.0513 8.98338 22.0645 9.02526C22.0778 9.06719 22.0906 9.10927 22.1028 9.1515C22.115 9.19374 22.1267 9.23612 22.1378 9.27867C22.149 9.32117 22.1597 9.3638 22.1698 9.40657C22.1799 9.44938 22.1894 9.4923 22.1985 9.53533C22.2075 9.57836 22.2161 9.62148 22.224 9.66469C22.232 9.70794 22.2394 9.75126 22.2463 9.79465C22.2532 9.83808 22.2596 9.88159 22.2654 9.9252C22.2712 9.96876 22.2765 10.0124 22.2812 10.0561C22.2859 10.0998 22.2901 10.1435 22.2938 10.1874C22.2974 10.2312 22.3005 10.2751 22.3031 10.3189C22.308 10.4055 22.3108 10.4922 22.3114 10.5789C22.3121 10.6656 22.3106 10.7523 22.307 10.839C22.3035 10.9256 22.2977 11.0121 22.2899 11.0985C22.2821 11.1848 22.2722 11.271 22.2602 11.3569C22.2481 11.4427 22.234 11.5283 22.2177 11.6134C22.2015 11.6987 22.1832 11.7834 22.1628 11.8677C22.1424 11.952 22.12 12.0357 22.0955 12.1189C22.0711 12.2021 22.0445 12.2847 22.016 12.3666C21.9875 12.4485 21.9569 12.5296 21.9244 12.61C21.8919 12.6904 21.8575 12.77 21.8211 12.8487C21.7846 12.9274 21.7463 13.0052 21.7061 13.082C21.6659 13.1589 21.6239 13.2347 21.5799 13.3095C21.536 13.3842 21.4902 13.4579 21.4427 13.5304C21.3952 13.603 21.3459 13.6743 21.2949 13.7444C21.2438 13.8145 21.1911 13.8833 21.1367 13.9509C21.0823 14.0184 21.0263 14.0846 20.9686 14.1494C20.9397 14.182 20.9104 14.2143 20.8806 14.2462C20.8509 14.2781 20.8208 14.3097 20.7903 14.3408C20.7599 14.372 20.729 14.4028 20.6978 14.4332C20.6665 14.4636 20.6349 14.4936 20.6029 14.5233C20.5709 14.5529 20.5386 14.5822 20.5059 14.611C20.4732 14.6398 20.4401 14.6683 20.4068 14.6964C20.3733 14.7244 20.3396 14.752 20.3056 14.7792C20.2715 14.8064 20.237 14.8332 20.2023 14.8595C20.1676 14.8859 20.1325 14.9118 20.0972 14.9373C20.0618 14.9628 20.0261 14.9879 19.9901 15.0125C19.9541 15.0372 19.9179 15.0614 19.8813 15.0851C19.8447 15.1088 19.8079 15.1321 19.7707 15.155C19.7335 15.1778 19.6961 15.2001 19.6584 15.222C19.6207 15.2439 19.5827 15.2654 19.5445 15.2864C19.5063 15.3074 19.4678 15.3279 19.4291 15.3479C19.3904 15.3679 19.3514 15.3875 19.3122 15.4066C19.273 15.4257 19.2335 15.4443 19.1939 15.4624C19.1542 15.4805 19.1143 15.4981 19.0743 15.5153C19.0341 15.5324 18.9938 15.549 18.9533 15.5651C18.9128 15.5813 18.8721 15.597 18.8312 15.6121C18.7903 15.6272 18.7493 15.6419 18.708 15.6561C18.6668 15.6702 18.6253 15.6838 18.5838 15.6969C18.5422 15.71 18.5005 15.7227 18.4585 15.7348C18.4167 15.7468 18.3746 15.7584 18.3324 15.7695C18.2903 15.7805 18.248 15.7911 18.2055 15.8012C18.1631 15.8112 18.1205 15.8207 18.0779 15.8296C18.0352 15.8386 17.9924 15.8471 17.9495 15.855C17.9067 15.8629 17.8637 15.8704 17.8206 15.8773C17.7776 15.8841 17.7344 15.8905 17.6912 15.8963C17.648 15.9021 17.6047 15.9074 17.5614 15.9121C17.518 15.9169 17.4747 15.9211 17.4312 15.9248C17.3878 15.9285 17.3443 15.9317 17.3007 15.9343C15.898 15.9884 14.5876 15.5518 13.518 14.636C13.453 14.5797 13.3893 14.5218 13.327 14.4623C13.2647 14.4029 13.204 14.342 13.1446 14.2797C13.0854 14.2172 13.0276 14.1534 12.9715 14.0882C12.9153 14.023 12.8607 13.9565 12.8078 13.8886C12.7548 13.8207 12.7035 13.7516 12.654 13.6813C12.6044 13.6109 12.5566 13.5393 12.5105 13.4666C12.4644 13.394 12.4201 13.3202 12.3776 13.2453C12.3351 13.1705 12.2945 13.0946 12.2557 13.0177C12.2169 12.9409 12.1801 12.8632 12.1451 12.7845C12.1101 12.7059 12.077 12.6265 12.0459 12.5462C12.0148 12.466 11.9856 12.385 11.9584 12.3033C11.9312 12.2217 11.9061 12.1394 11.8829 12.0564C11.8598 11.9736 11.8386 11.8902 11.8195 11.8062C11.8004 11.7223 11.7834 11.638 11.7684 11.5532C11.7534 11.4684 11.7405 11.3833 11.7297 11.298C11.7189 11.2126 11.7101 11.127 11.7034 11.0412C11.7 10.9973 11.6972 10.9535 11.6949 10.9095C11.6926 10.8657 11.6908 10.8218 11.6896 10.7778C11.6884 10.7339 11.6877 10.6899 11.6876 10.646C11.6874 10.602 11.6878 10.5581 11.6888 10.5141C11.6897 10.4701 11.6912 10.4262 11.6933 10.3823C11.6953 10.3384 11.6979 10.2945 11.701 10.2507C11.7041 10.2068 11.7078 10.163 11.712 10.1192C11.7162 10.0755 11.721 10.0318 11.7263 9.98815C11.7315 9.9445 11.7374 9.90094 11.7437 9.85747C11.7501 9.81395 11.757 9.77054 11.7645 9.72724C11.7719 9.6839 11.7799 9.64067 11.7884 9.59755C11.7969 9.55443 11.8059 9.51142 11.8155 9.46852C11.825 9.42558 11.8351 9.38279 11.8457 9.34016C11.8564 9.29748 11.8675 9.25496 11.8792 9.2126C11.8908 9.17023 11.903 9.12799 11.9158 9.08589C11.9285 9.04383 11.9417 9.00193 11.9555 8.96018C11.9692 8.91844 11.9835 8.87687 11.9983 8.83547C12.0131 8.79404 12.0284 8.75282 12.0442 8.71183C12.06 8.67079 12.0763 8.62997 12.0931 8.58937C12.1099 8.54873 12.1272 8.50831 12.145 8.46811C12.1628 8.42796 12.1811 8.38801 12.1999 8.34825C12.2187 8.3085 12.238 8.26901 12.2578 8.22978C12.2776 8.19051 12.2978 8.15149 12.3185 8.11271C12.3393 8.07397 12.3605 8.03548 12.3822 7.99723C12.4039 7.95898 12.426 7.92102 12.4486 7.88334C12.4713 7.84567 12.4943 7.80826 12.5179 7.77111C12.5415 7.73402 12.5655 7.6972 12.5899 7.66068C12.6144 7.62416 12.6393 7.58794 12.6647 7.55204C12.69 7.51614 12.7158 7.48054 12.7421 7.44526C12.7683 7.40998 12.7949 7.37502 12.822 7.3404C12.8491 7.30583 12.8767 7.27156 12.9046 7.23761C12.9326 7.20369 12.9609 7.17012 12.9897 7.13687C13.9456 6.03032 15.275 5.42054 16.7214 5.31926Z" fill="#00191F"/>
</g>
<g filter="url(#filter5_d_45_14)">
<path d="M13.1123 17.1889C13.6116 17.1513 14.1544 17.5178 14.6396 17.6766C15.063 17.8139 15.4951 17.9133 15.9359 17.9748C15.9501 19.2702 15.9386 20.5669 15.9378 21.8623L15.9376 22.8794C15.9376 23.1163 15.9216 23.3649 15.9639 23.5986C15.9986 23.7906 16.114 23.9801 16.25 24.1181C16.4563 24.3277 16.7165 24.4312 17.0101 24.4315C17.2999 24.4318 17.5626 24.3016 17.7648 24.0987C17.9159 23.947 18.0067 23.7508 18.0406 23.5407C18.0799 23.2976 18.0637 23.0424 18.0629 22.7967L18.0626 21.7806L18.0646 17.9705C18.48 17.9163 18.9016 17.8267 19.2997 17.6952C19.4787 17.635 19.6552 17.5681 19.8293 17.4947C20.1338 17.3632 20.4352 17.1773 20.7773 17.1818C21.3341 17.1891 21.916 17.7874 22.2894 18.1602C22.3656 18.2371 22.4402 18.3157 22.513 18.3959C22.5858 18.4761 22.6568 18.5578 22.726 18.6412C22.7952 18.7245 22.8626 18.8093 22.928 18.8955C22.9935 18.9818 23.0571 19.0695 23.1188 19.1585C23.1804 19.2476 23.24 19.3379 23.2977 19.4296C23.3554 19.5213 23.411 19.6142 23.4646 19.7083C23.5182 19.8024 23.5697 19.8977 23.6191 19.9941C23.6685 20.0905 23.7158 20.1879 23.7609 20.2864C23.8061 20.3848 23.849 20.4842 23.8898 20.5845C23.9306 20.6849 23.9691 20.7861 24.0054 20.8881C24.0418 20.9902 24.0758 21.093 24.1077 21.1965C24.1395 21.3 24.169 21.4042 24.1963 21.509C24.2235 21.6139 24.2484 21.7192 24.271 21.8251C24.2937 21.9311 24.3139 22.0375 24.3319 22.1443C24.3498 22.2511 24.3654 22.3583 24.3787 22.4658C24.3919 22.5732 24.4028 22.681 24.4113 22.789C24.4716 23.5061 24.439 24.241 24.4385 24.9604L24.4383 28.6901C22.8416 28.7164 21.2406 28.693 19.6434 28.693H9.56072C9.57546 28.2422 9.56318 27.787 9.56318 27.3358L9.56271 24.7174C9.56271 24.0497 9.53854 23.3731 9.59425 22.7073C9.60187 22.6233 9.61092 22.5394 9.62141 22.4556C9.63191 22.3718 9.64382 22.2883 9.65714 22.2049C9.67047 22.1216 9.68521 22.0385 9.70137 21.9556C9.71753 21.8728 9.73508 21.7902 9.75403 21.7079C9.77298 21.6257 9.79334 21.5438 9.81512 21.4622C9.83686 21.3806 9.85999 21.2994 9.88452 21.2186C9.90904 21.1379 9.93492 21.0576 9.96215 20.9777C9.98942 20.8978 10.018 20.8184 10.0479 20.7395C10.0779 20.6605 10.1092 20.5821 10.1418 20.5042C10.1745 20.4264 10.2084 20.3491 10.2436 20.2724C10.2789 20.1957 10.3155 20.1196 10.3533 20.0442C10.3912 19.9688 10.4303 19.894 10.4707 19.8198C10.5111 19.7457 10.5527 19.6723 10.5956 19.5995C10.6385 19.5268 10.6826 19.4549 10.7279 19.3837C10.7733 19.3125 10.8198 19.2421 10.8675 19.1725C10.9153 19.1028 10.9642 19.034 11.0143 18.9661C11.403 18.4396 12.1752 17.5888 12.7557 17.2956C12.8715 17.2372 12.9847 17.2082 13.1123 17.1889Z" fill="#00191F"/>
</g>
</g>
<defs>
<filter id="filter0_d_45_14" x="0.725" y="9.16238" width="11.2991" height="11.2987" filterUnits="userSpaceOnUse" color-interpolation-filters="sRGB">
<feFlood flood-opacity="0" result="BackgroundImageFix"/>
<feColorMatrix in="SourceAlpha" type="matrix" values="0 0 0 0 0 0 0 0 0 0 0 0 0 0 0 0 0 0 127 0" result="hardAlpha"/>
<feOffset dy="1"/>
<feGaussianBlur stdDeviation="0.7"/>
<feComposite in2="hardAlpha" operator="out"/>
<feColorMatrix type="matrix" values="0 0 0 0 0 0 0 0 0 0 0 0 0 0 0 0 0 0 0.25 0"/>
<feBlend mode="normal" in2="BackgroundImageFix" result="effect1_dropShadow_45_14"/>
<feBlend mode="normal" in="SourceGraphic" in2="effect1_dropShadow_45_14" result="shape"/>
</filter>
<filter id="filter1_d_45_14" x="21.975" y="9.16238" width="11.2991" height="11.2987" filterUnits="userSpaceOnUse" color-interpolation-filters="sRGB">
<feFlood flood-opacity="0" result="BackgroundImageFix"/>
<feColorMatrix in="SourceAlpha" type="matrix" values="0 0 0 0 0 0 0 0 0 0 0 0 0 0 0 0 0 0 127 0" result="hardAlpha"/>
<feOffset dy="1"/>
<feGaussianBlur stdDeviation="0.7"/>
<feComposite in2="hardAlpha" operator="out"/>
<feColorMatrix type="matrix" values="0 0 0 0 0 0 0 0 0 0 0 0 0 0 0 0 0 0 0.25 0"/>
<feBlend mode="normal" in2="BackgroundImageFix" result="effect1_dropShadow_45_14"/>
<feBlend mode="normal" in="SourceGraphic" in2="effect1_dropShadow_45_14" result="shape"/>
</filter>
<filter id="filter2_d_45_14" x="23.9316" y="18.3104" width="10.4191" height="12.794" filterUnits="userSpaceOnUse" color-interpolation-filters="sRGB">
<feFlood flood-opacity="0" result="BackgroundImageFix"/>
<feColorMatrix in="SourceAlpha" type="matrix" values="0 0 0 0 0 0 0 0 0 0 0 0 0 0 0 0 0 0 127 0" result="hardAlpha"/>
<feOffset dy="1"/>
<feGaussianBlur stdDeviation="0.7"/>
<feComposite in2="hardAlpha" operator="out"/>
<feColorMatrix type="matrix" values="0 0 0 0 0 0 0 0 0 0 0 0 0 0 0 0 0 0 0.25 0"/>
<feBlend mode="normal" in2="BackgroundImageFix" result="effect1_dropShadow_45_14"/>
<feBlend mode="normal" in="SourceGraphic" in2="effect1_dropShadow_45_14" result="shape"/>
</filter>
<filter id="filter3_d_45_14" x="-0.342902" y="18.3142" width="10.4054" height="12.7916" filterUnits="userSpaceOnUse" color-interpolation-filters="sRGB">
<feFlood flood-opacity="0" result="BackgroundImageFix"/>
<feColorMatrix in="SourceAlpha" type="matrix" values="0 0 0 0 0 0 0 0 0 0 0 0 0 0 0 0 0 0 127 0" result="hardAlpha"/>
<feOffset dy="1"/>
<feGaussianBlur stdDeviation="0.7"/>
<feComposite in2="hardAlpha" operator="out"/>
<feColorMatrix type="matrix" values="0 0 0 0 0 0 0 0 0 0 0 0 0 0 0 0 0 0 0.25 0"/>
<feBlend mode="normal" in2="BackgroundImageFix" result="effect1_dropShadow_45_14"/>
<feBlend mode="normal" in="SourceGraphic" in2="effect1_dropShadow_45_14" result="shape"/>
</filter>
<filter id="filter4_d_45_14" x="10.2875" y="4.91564" width="13.4241" height="13.4231" filterUnits="userSpaceOnUse" color-interpolation-filters="sRGB">
<feFlood flood-opacity="0" result="BackgroundImageFix"/>
<feColorMatrix in="SourceAlpha" type="matrix" values="0 0 0 0 0 0 0 0 0 0 0 0 0 0 0 0 0 0 127 0" result="hardAlpha"/>
<feOffset dy="1"/>
<feGaussianBlur stdDeviation="0.7"/>
<feComposite in2="hardAlpha" operator="out"/>
<feColorMatrix type="matrix" values="0 0 0 0 0 0 0 0 0 0 0 0 0 0 0 0 0 0 0.25 0"/>
<feBlend mode="normal" in2="BackgroundImageFix" result="effect1_dropShadow_45_14"/>
<feBlend mode="normal" in="SourceGraphic" in2="effect1_dropShadow_45_14" result="shape"/>
</filter>
<filter id="filter5_d_45_14" x="8.1575" y="16.7817" width="17.6903" height="14.3209" filterUnits="userSpaceOnUse" color-interpolation-filters="sRGB">
<feFlood flood-opacity="0" result="BackgroundImageFix"/>
<feColorMatrix in="SourceAlpha" type="matrix" values="0 0 0 0 0 0 0 0 0 0 0 0 0 0 0 0 0 0 127 0" result="hardAlpha"/>
<feOffset dy="1"/>
<feGaussianBlur stdDeviation="0.7"/>
<feComposite in2="hardAlpha" operator="out"/>
<feColorMatrix type="matrix" values="0 0 0 0 0 0 0 0 0 0 0 0 0 0 0 0 0 0 0.25 0"/>
<feBlend mode="normal" in2="BackgroundImageFix" result="effect1_dropShadow_45_14"/>
<feBlend mode="normal" in="SourceGraphic" in2="effect1_dropShadow_45_14" result="shape"/>
</filter>
<clipPath id="clip0_45_14">
<rect width="34" height="34" fill="white"/>
</clipPath>
</defs>
</svg>
